<svg
   xmlns:dc="http://purl.org/dc/elements/1.1/"
   xmlns:cc="http://creativecommons.org/ns#"
   xmlns:rdf="http://www.w3.org/1999/02/22-rdf-syntax-ns#"
   xmlns:svg="http://www.w3.org/2000/svg"
   xmlns="http://www.w3.org/2000/svg"
   viewBox="0 0 1702.9467 1135.5947"
   height="1135.5947"
   width="1702.9467"
   xml:space="preserve"
   id="svg2"
   version="1.1"><metadata
     id="metadata8"><rdf:RDF><cc:Work
         rdf:about=""><dc:format>image/svg+xml</dc:format><dc:type
           rdf:resource="http://purl.org/dc/dcmitype/StillImage" /></cc:Work></rdf:RDF></metadata><defs
     id="defs6"><clipPath
       id="clipPath18"
       clipPathUnits="userSpaceOnUse">
       <path
       className="path"
       stroke="#4CADC1" stroke-width="4" stroke-linejoin="round" stroke-linecap="round" stroke-miterlimit="10" stroke-dasharray="300" stroke-dashoffset="300" fill="none"
         id="path16"
         d="M 0,851.696 H 1277.206 V 0 H 0 Z" /></clipPath></defs><g
     transform="matrix(1.3333333,0,0,-1.3333333,0,1135.5947)"
     id="g10"><g
       id="g12"><g
         clip-path="url(#clipPath18)"
         id="g14"><g
           transform="translate(440.5514,747.1071)"
           id="g20"><path
           className="path"
             id="path22"
             style="fill:#1c1f20;fill-opacity:1;fill-rule:evenodd;stroke:none"
             d="m 0,0 h 212.388 v -95.396 c -34.993,0.896 -66.42,32.47 -102.241,23.501 -127.064,-31.815 -37.115,-190.981 13.475,-310.085 -20.858,90.692 -112.431,258.706 -2.636,288.126 24.649,6.602 61.29,-23.69 91.402,-2.338 v -11.864 c -21.816,-8.08 -45.62,-14.239 -72.903,-10.488 24.6,-17.135 49.379,-15.19 72.903,-8.246 v -295.354 l -212.388,0 z" /></g><g
           transform="translate(678.0259,825.9537)"
           id="g24"><path
           className="path"
             id="path26"
             style="fill:#3d6469;fill-opacity:1;fill-rule:evenodd;stroke:none"
             d="M 0,0 H 158.629 V -422.144 H 0 v 225.385 c 33.68,13.113 63.318,25.981 83.993,-9.138 30.047,-51.029 -4.609,-114.807 -20.278,-144.085 57.918,48.745 70.649,142.108 25.731,174.212 -30.109,21.52 -58.15,11.644 -89.446,-1.122 z" /></g><g
           transform="translate(94.1534,216.8912)"
           id="g28"><path
           className="path"
             id="path30"
             style="fill:#1c1f20;fill-opacity:1;fill-rule:nonzero;stroke:none"
             d="m 0,0 c -4.077,3.169 -9.804,4.755 -17.179,4.755 h -28.114 v -37.002 h 27.983 c 3.384,0 6.506,0.435 9.371,1.303 2.864,0.868 5.336,2.108 7.42,3.715 2.081,1.606 3.708,3.582 4.881,5.927 1.17,2.345 1.756,4.994 1.756,7.948 C 6.118,-7.621 4.078,-3.17 0,0 m 7.027,-76.648 -26.355,35.314 H -45.293 V -76.648 H -55.55 v 90.881 h 39.079 c 5.018,0 9.542,-0.651 13.566,-1.95 4.025,-1.298 7.466,-3.138 10.322,-5.52 2.856,-2.381 5.063,-5.24 6.621,-8.572 1.558,-3.336 2.337,-7.038 2.337,-11.108 0,-3.809 -0.607,-7.209 -1.817,-10.195 -1.214,-2.988 -2.922,-5.586 -5.129,-7.794 -2.207,-2.209 -4.826,-4.049 -7.855,-5.521 -3.031,-1.473 -6.319,-2.511 -9.866,-3.116 l 27.913,-37.105 z" /></g><path
           id="path32"
           style="fill:#1c1f20;fill-opacity:1;fill-rule:nonzero;stroke:none"
           d="m 146.231,140.243 h -10.257 v 90.881 h 10.257 z" /><g
           transform="translate(246.003,148.0982)"
           id="g34"><path
           className="path"
             id="path36"
             style="fill:#1c1f20;fill-opacity:1;fill-rule:nonzero;stroke:none"
             d="m 0,0 c -2.555,-1.947 -5.304,-3.615 -8.245,-4.999 -2.943,-1.385 -6.102,-2.466 -9.478,-3.246 -3.375,-0.778 -7.14,-1.169 -11.295,-1.169 -6.578,0 -12.637,1.215 -18.175,3.637 -5.541,2.422 -10.344,5.732 -14.412,9.931 -4.069,4.198 -7.249,9.153 -9.542,14.866 -2.295,5.712 -3.44,11.856 -3.44,18.436 0,6.491 1.145,12.593 3.44,18.305 2.293,5.713 5.473,10.711 9.542,14.996 4.068,4.284 8.915,7.66 14.541,10.126 5.625,2.467 11.771,3.7 18.437,3.7 4.153,0 7.896,-0.346 11.23,-1.038 3.33,-0.694 6.426,-1.668 9.283,-2.921 2.855,-1.256 5.494,-2.771 7.919,-4.544 2.422,-1.776 4.759,-3.745 7.01,-5.908 l -7.01,-7.529 c -3.896,3.634 -8.073,6.62 -12.529,8.958 -4.459,2.336 -9.802,3.505 -16.034,3.505 -5.021,0 -9.673,-0.954 -13.956,-2.856 -4.285,-1.905 -8.008,-4.544 -11.165,-7.92 -3.162,-3.375 -5.628,-7.335 -7.401,-11.879 -1.775,-4.545 -2.661,-9.457 -2.661,-14.736 0,-5.28 0.886,-10.214 2.661,-14.8 1.773,-4.589 4.239,-8.569 7.401,-11.945 3.157,-3.376 6.88,-6.037 11.165,-7.984 4.283,-1.947 8.935,-2.922 13.956,-2.922 6.232,0 11.597,1.147 16.098,3.441 4.5,2.292 8.915,5.517 13.243,9.672 L 7.334,6.556 C 4.997,4.132 2.551,1.947 0,0" /></g><g
           transform="translate(284.1056,181.1397)"
           id="g38"><path
           className="path"
             id="path40"
             style="fill:#1c1f20;fill-opacity:1;fill-rule:nonzero;stroke:none"
             d="m 0,0 v -40.896 h -10.256 v 90.88 H 0 V 9.607 h 52.452 v 40.377 h 10.256 v -90.88 H 52.452 V 0 Z" /></g><g
           transform="translate(418.7384,165.1705)"
           id="g42"><path
           className="path"
             id="path44"
             style="fill:#1c1f20;fill-opacity:1;fill-rule:nonzero;stroke:none"
             d="m 0,0 h -0.52 l -33.106,48.556 v -73.483 h -9.997 v 90.881 h 10.386 L -0.13,16.358 32.977,65.954 H 43.362 V -24.927 H 33.105 v 73.613 z" /></g><g
           transform="translate(565.7701,200.2247)"
           id="g46"><path
           className="path"
             id="path48"
             style="fill:#1c1f20;fill-opacity:1;fill-rule:nonzero;stroke:none"
             d="m 0,0 c -1.775,4.586 -4.264,8.568 -7.466,11.944 -3.203,3.375 -6.99,6.057 -11.36,8.049 -4.371,1.99 -9.153,2.986 -14.345,2.986 -5.194,0 -9.977,-0.973 -14.347,-2.92 -4.371,-1.949 -8.114,-4.61 -11.231,-7.985 -3.116,-3.376 -5.562,-7.336 -7.334,-11.88 -1.775,-4.544 -2.662,-9.412 -2.662,-14.605 0,-5.194 0.887,-10.085 2.662,-14.671 1.772,-4.589 4.261,-8.569 7.464,-11.944 3.201,-3.376 6.989,-6.06 11.361,-8.05 4.369,-1.992 9.153,-2.986 14.346,-2.986 5.193,0 9.974,0.974 14.346,2.921 4.369,1.948 8.114,4.609 11.23,7.985 3.116,3.375 5.561,7.335 7.336,11.879 1.772,4.544 2.661,9.413 2.661,14.606 C 2.661,-9.478 1.772,-4.589 0,0 m 9.931,-32.393 c -2.251,-5.67 -5.41,-10.668 -9.477,-14.995 -4.07,-4.329 -8.958,-7.77 -14.671,-10.321 -5.713,-2.552 -12.032,-3.831 -18.954,-3.831 -6.926,0 -13.224,1.256 -18.891,3.766 -5.67,2.509 -10.539,5.907 -14.606,10.191 -4.069,4.285 -7.206,9.261 -9.413,14.931 -2.206,5.667 -3.31,11.662 -3.31,17.981 0,6.317 1.124,12.312 3.375,17.981 2.25,5.669 5.409,10.667 9.478,14.996 4.067,4.326 8.957,7.767 14.67,10.321 5.713,2.552 12.031,3.83 18.956,3.83 6.923,0 13.221,-1.256 18.89,-3.765 C -8.354,26.181 -3.486,22.785 0.583,18.5 4.651,14.216 7.789,9.238 9.997,3.57 c 2.207,-5.67 3.309,-11.664 3.309,-17.981 0,-6.319 -1.125,-12.314 -3.375,-17.982" /></g><g
           transform="translate(670.2154,231.1241)"
           id="g50"><path
           className="path"
             id="path52"
             style="fill:#1c1f20;fill-opacity:1;fill-rule:nonzero;stroke:none"
             d="M 0,0 H 9.997 V -90.881 H 1.818 l -58.683,74.523 v -74.523 h -9.997 V 0 h 9.607 L 0,-72.835 Z" /></g><g
           transform="translate(775.0518,199.7047)"
           id="g54"><path
           className="path"
             id="path56"
             style="fill:#1c1f20;fill-opacity:1;fill-rule:nonzero;stroke:none"
             d="m 0,0 c -1.774,4.415 -4.284,8.244 -7.53,11.491 -3.245,3.245 -7.205,5.797 -11.88,7.659 -4.673,1.86 -9.866,2.791 -15.579,2.791 h -21.292 v -71.925 h 21.292 c 5.713,0 10.906,0.909 15.579,2.726 4.675,1.819 8.635,4.35 11.88,7.595 3.246,3.246 5.756,7.032 7.53,11.361 1.772,4.326 2.662,9.043 2.662,14.151 C 2.662,-9.132 1.772,-4.414 0,0 m 9.803,-31.873 c -2.338,-5.583 -5.649,-10.408 -9.933,-14.476 -4.284,-4.068 -9.391,-7.271 -15.319,-9.607 -5.93,-2.337 -12.444,-3.505 -19.54,-3.505 h -31.549 v 90.88 h 31.549 c 7.096,0 13.61,-1.148 19.54,-3.44 5.928,-2.295 11.035,-5.476 15.319,-9.543 4.284,-4.069 7.595,-8.873 9.933,-14.411 2.337,-5.54 3.504,-11.512 3.504,-17.916 0,-6.406 -1.167,-12.399 -3.504,-17.982" /></g><g
           transform="translate(909.2296,231.3834)"
           id="g58"><path
           className="path"
             id="path60"
             style="fill:#1c1f20;fill-opacity:1;fill-rule:nonzero;stroke:none"
             d="M 0,0 H 8.438 L 33.364,-75.95 59.331,-0.259 H 70.106 L 37.649,-91.79 H 28.951 L 4.023,-18.046 -21.034,-91.79 h -8.569 L -62.06,-0.259 h 11.165 l 25.966,-75.691 z" /></g><g
           transform="translate(1066.1906,221.776)"
           id="g62"><path
           className="path"
             id="path64"
             style="fill:#1c1f20;fill-opacity:1;fill-rule:nonzero;stroke:none"
             d="m 0,0 h -55.437 v -31.029 h 49.595 v -9.348 H -55.437 V -72.185 H 0.649 v -9.348 H -65.693 V 9.348 L 0,9.348 Z" /></g><g
           transform="translate(1099.0363,202.6588)"
           id="g66"><path
           className="path"
             id="path68"
             style="fill:#1c1f20;fill-opacity:1;fill-rule:nonzero;stroke:none"
             d="m 0,0 c 0.693,-1.734 1.949,-3.317 3.766,-4.747 1.818,-1.43 4.327,-2.731 7.53,-3.901 3.201,-1.17 7.313,-2.276 12.333,-3.315 10.128,-2.253 17.593,-5.373 22.396,-9.362 4.803,-3.987 7.205,-9.491 7.205,-16.512 0,-3.903 -0.77,-7.457 -2.308,-10.664 -1.537,-3.207 -3.659,-5.938 -6.361,-8.192 -2.702,-2.254 -5.957,-3.988 -9.766,-5.201 -3.81,-1.211 -7.964,-1.819 -12.464,-1.819 -7.27,0 -13.914,1.174 -19.929,3.519 -6.016,2.345 -11.749,5.976 -17.202,10.891 l 6.362,7.531 c 4.759,-4.33 9.563,-7.553 14.411,-9.673 4.846,-2.122 10.429,-3.181 16.749,-3.181 6.144,0 11.055,1.431 14.734,4.291 3.678,2.86 5.518,6.631 5.518,11.314 0,2.166 -0.347,4.093 -1.04,5.785 -0.695,1.69 -1.91,3.227 -3.645,4.614 -1.737,1.388 -4.143,2.644 -7.223,3.772 -3.08,1.128 -7.006,2.211 -11.777,3.251 -5.206,1.126 -9.74,2.427 -13.6,3.901 -3.862,1.473 -7.051,3.25 -9.566,5.331 -2.516,2.08 -4.383,4.506 -5.596,7.281 -1.215,2.775 -1.821,6.069 -1.821,9.883 0,3.64 0.734,6.976 2.206,10.012 1.472,3.034 3.549,5.655 6.233,7.866 2.682,2.211 5.842,3.944 9.477,5.201 3.635,1.258 7.615,1.887 11.944,1.887 6.664,0 12.484,-0.919 17.462,-2.752 4.977,-1.835 9.802,-4.595 14.477,-8.283 l -5.973,-7.919 c -4.241,3.46 -8.504,5.971 -12.789,7.529 -4.284,1.558 -8.762,2.337 -13.436,2.337 -2.944,0 -5.605,-0.391 -7.985,-1.171 C 7.941,18.724 5.908,17.683 4.221,16.383 2.532,15.083 1.234,13.522 0.326,11.703 -0.583,9.881 -1.038,7.932 -1.038,5.853 -1.038,3.684 -0.693,1.732 0,0" /></g><g
           transform="translate(1208.0929,140.2433)"
           id="g70"><path
           className="path"
             id="path72"
             style="fill:#1c1f20;fill-opacity:1;fill-rule:nonzero;stroke:none"
             d="m 0,0 h -10.256 v 81.403 h -30.509 v 9.478 H 30.511 V 81.403 H 0 Z" /></g><g
           transform="translate(931.7266,77.4195)"
           id="g74"><path
           className="path"
             id="path76"
             style="fill:#3d6469;fill-opacity:1;fill-rule:evenodd;stroke:none"
             d="m 0,0 c 0.372,0 0.74,-0.025 1.1,-0.072 l 125.169,-6.7 c 0.784,0 1.422,-0.639 1.422,-1.426 0,-0.787 -0.638,-1.425 -1.422,-1.425 V -9.638 L 0.887,-16.351 C 0.597,-16.38 0.3,-16.398 0,-16.398 c -4.527,0 -8.198,3.67 -8.198,8.2 C -8.198,-3.671 -4.527,0 0,0" /></g><g
           transform="translate(345.4801,77.4195)"
           id="g78"><path
           className="path"
             id="path80"
             style="fill:#3d6469;fill-opacity:1;fill-rule:evenodd;stroke:none"
             d="m 0,0 c -0.373,0 -0.739,-0.025 -1.098,-0.072 l -125.167,-6.7 c -0.788,0 -1.426,-0.639 -1.426,-1.426 0,-0.787 0.638,-1.425 1.426,-1.425 v -0.015 l 125.381,-6.713 c 0.291,-0.029 0.586,-0.047 0.884,-0.047 4.53,0 8.2,3.67 8.2,8.2 C 8.2,-3.671 4.53,0 0,0" /></g><g
           transform="translate(480.7804,61.9518)"
           id="g82"><path
             id="path84"
             className="path"
             style="fill:#1c1f20;fill-opacity:1;fill-rule:nonzero;stroke:none"
             d="m 0,0 c 0,4.291 -0.776,8.338 -2.327,12.144 -1.552,3.805 -3.742,7.127 -6.569,9.965 -2.829,2.838 -6.278,5.086 -10.347,6.748 -4.069,1.661 -8.622,2.491 -13.656,2.491 h -18.726 v -62.695 h 18.726 c 5.034,0 9.587,0.813 13.656,2.44 4.069,1.626 7.518,3.839 10.347,6.642 2.827,2.802 5.017,6.088 6.569,9.861 C -0.776,-8.634 0,-4.567 0,-0.206 Z m 2.794,-14.276 c -1.862,-4.414 -4.501,-8.243 -7.915,-11.484 -3.414,-3.243 -7.484,-5.795 -12.208,-7.656 -4.725,-1.862 -9.915,-2.794 -15.57,-2.794 h -24.105 v 72.421 h 24.105 c 5.655,0 10.845,-0.915 15.57,-2.742 4.724,-1.828 8.794,-4.363 12.208,-7.604 C -1.707,22.622 0.932,18.812 2.794,14.433 4.656,10.052 5.587,5.311 5.587,0.208 V 0 c 0,-5.104 -0.931,-9.863 -2.793,-14.276" /></g><g
           transform="translate(506.7486,25.7418)"
           id="g86"><path
           className="path"
             id="path88"
             style="fill:#1c1f20;fill-opacity:1;fill-rule:nonzero;stroke:none"
             d="M 0,0 V 72.421 H 51.521 V 67.558 H 5.38 V 38.9 H 46.866 V 34.038 H 5.38 V 4.863 H 52.039 V 0 Z" /></g><g
           transform="translate(634.3111,25.7418)"
           id="g90"><path
           className="path"
             id="path92"
             style="fill:#1c1f20;fill-opacity:1;fill-rule:nonzero;stroke:none"
             d="M 0,0 -51.004,64.351 V 0 h -5.173 v 72.421 h 5.069 L -1.138,9.416 V 72.421 H 4.035 L 4.035,0 Z" /></g><g
           transform="translate(687.3834,93.2999)"
           id="g94"><path
           className="path"
             id="path96"
             style="fill:#1c1f20;fill-opacity:1;fill-rule:nonzero;stroke:none"
             d="M 0,0 V -67.558 H -5.379 V 0 H -30.623 V 4.863 H 25.244 V 0 Z" /></g><g
           transform="translate(751.7335,92.7823)"
           id="g98"><path
           className="path"
             id="path100"
             style="fill:#1c1f20;fill-opacity:1;fill-rule:nonzero;stroke:none"
             d="m 0,0 -19.139,-41.9 h 38.175 z m 30.521,-67.041 -9.209,20.278 h -42.727 l -9.208,-20.278 h -5.586 L -2.482,5.898 h 5.171 l 33.729,-72.939 z" /></g><g
           transform="translate(805.5313,25.7418)"
           id="g102"><path
           className="path"
             id="path104"
             style="fill:#1c1f20;fill-opacity:1;fill-rule:nonzero;stroke:none"
             d="M 0,0 V 72.421 H 5.38 V 4.863 H 47.9 L 47.9,0 Z" /></g></g></g></g></svg>